<svg xmlns="http://www.w3.org/2000/svg" width="40.197" height="40.173" viewBox="0 0 40.197 40.173">
  <g id="Group_17" data-name="Group 17" transform="translate(-9 -12.038)">
    <path id="Path_89" data-name="Path 89" d="M53.209,40.78a.648.648,0,0,0,.648-.648V38.187a.648.648,0,0,0-.19-.458l-2.4-2.4V33.648A.648.648,0,0,0,50.615,33H48.022a.648.648,0,0,0-.648.648v1.677L45.428,37.27l-1.945-1.945V33.648A.648.648,0,0,0,42.835,33H40.242a.648.648,0,0,0-.648.648v1.677l-2.4,2.4a.648.648,0,0,0-.19.458v1.945a.648.648,0,0,0,.648.648H38.3v.38L37.19,42.267a.648.648,0,0,0-.19.458V51.8a.648.648,0,0,0,.648.648h15.56a.648.648,0,0,0,.648-.648V42.725a.648.648,0,0,0-.19-.458L52.56,41.16v-.38ZM48.48,36.052a.648.648,0,0,0,.19-.458V34.3h1.3v1.3a.648.648,0,0,0,.19.458l2.4,2.4v1.028H46.077V38.455ZM44.78,48.56H38.3V44.67H44.78Zm1.3-3.89H52.56v3.89H46.077Zm-.648-2.862-.648-.648v-.38h1.3v.38ZM38.3,38.455l2.4-2.4a.648.648,0,0,0,.19-.458V34.3h1.3v1.3a.648.648,0,0,0,.19.458l2.4,2.4v1.028H38.3ZM39.4,41.887a.648.648,0,0,0,.19-.458V40.78h3.89v.648a.648.648,0,0,0,.19.458l1.107,1.107v.38H38.3v-.38ZM38.3,49.857H44.78v1.3H38.3Zm7.78,1.3v-1.3H52.56v1.3Zm5.377-9.267,1.107,1.107v.38H46.077v-.38l1.107-1.107a.648.648,0,0,0,.19-.458V40.78h3.89v.648a.648.648,0,0,0,.19.458Z" transform="translate(-4.66 -0.24)" fill="#74b8d0"/>
    <path id="Path_90" data-name="Path 90" d="M18.774,29.63,35.821,12.583a.648.648,0,0,0,0-.917l-.838-.838,1.487-1.487a.648.648,0,0,0,0-.917l-.838-.838L41.007,2.21l-.917-.917L34.714,6.67l-.838-.838a.648.648,0,0,0-.917,0L31.472,7.318l-.838-.838a.648.648,0,0,0-.917,0L12.67,23.527,11.184,22.04a.648.648,0,0,0-.917,0L7.673,24.633a.648.648,0,0,0,0,.917l2.783,2.783L6.187,32.6,4.7,31.117a.648.648,0,0,0-.917,0L1.19,33.71a.648.648,0,0,0,0,.917L7.673,41.11a.648.648,0,0,0,.917,0l2.593-2.593a.648.648,0,0,0,0-.917L9.7,36.114l4.27-4.27,2.783,2.783a.648.648,0,0,0,.917,0l2.593-2.593a.648.648,0,0,0,0-.917ZM33.417,7.207l1.677,1.677L34.066,9.911,32.389,8.235Zm-3.242.648,4.27,4.27L19.8,26.768l-4.27-4.27L16.56,21.47l1.487,1.487.917-.917-1.487-1.487,1.028-1.028,2.783,2.783.917-.917-2.783-2.783L20.45,17.58l1.487,1.487.917-.917-1.487-1.487L22.4,15.635l2.783,2.783L26.1,17.5l-2.783-2.783L24.34,13.69l1.487,1.487.917-.917-1.487-1.487,1.028-1.028,2.783,2.783.917-.917L27.2,10.828,28.231,9.8l1.487,1.487.917-.917L29.147,8.883Zm-15.56,15.56,4.27,4.27-1.028,1.028-4.27-4.27ZM8.132,39.735,2.565,34.169l1.677-1.677,5.567,5.567ZM8.78,35.2,7.1,33.52l4.27-4.27,1.677,1.677Zm8.428-1.945-8.16-8.16,1.677-1.677,8.16,8.16Z" transform="translate(8 10.91)" fill="#74b8d0"/>
    <path id="Path_91" data-name="Path 91" d="M4.89,22.683a3.752,3.752,0,0,0,2.672-1.107A4.129,4.129,0,0,0,8.78,18.636V18.4a4.171,4.171,0,0,0-.523-2.02l-2.8-5.038a.674.674,0,0,0-1.133,0L1.567,16.31A4.508,4.508,0,0,0,1,18.5v.141a4.129,4.129,0,0,0,1.218,2.941A3.752,3.752,0,0,0,4.89,22.683ZM2.3,18.5a3.212,3.212,0,0,1,.4-1.556L4.89,13l2.233,4.02a2.866,2.866,0,0,1,.36,1.388v.23a2.843,2.843,0,0,1-.838,2.024,2.542,2.542,0,0,1-3.51,0A2.843,2.843,0,0,1,2.3,18.636Z" transform="translate(8 7.483)" fill="#74b8d0"/>
    <path id="Path_92" data-name="Path 92" d="M20.89,12.683a3.752,3.752,0,0,0,2.672-1.107A4.129,4.129,0,0,0,24.78,8.636V8.4a4.171,4.171,0,0,0-.523-2.02l-2.8-5.038a.674.674,0,0,0-1.133,0L17.567,6.31A4.508,4.508,0,0,0,17,8.5v.141a4.129,4.129,0,0,0,1.218,2.941,3.752,3.752,0,0,0,2.672,1.107ZM18.3,8.5a3.212,3.212,0,0,1,.4-1.556L20.89,3l2.233,4.02a2.866,2.866,0,0,1,.36,1.388v.23a2.843,2.843,0,0,1-.838,2.024,2.542,2.542,0,0,1-3.51,0A2.843,2.843,0,0,1,18.3,8.636Z" transform="translate(2.374 11)" fill="#74b8d0"/>
  </g>
</svg>
