<svg xmlns:dc="http://purl.org/dc/elements/1.1/" xmlns:cc="http://creativecommons.org/ns#" xmlns:rdf="http://www.w3.org/1999/02/22-rdf-syntax-ns#" xmlns:svg="http://www.w3.org/2000/svg" xmlns="http://www.w3.org/2000/svg" xmlns:sodipodi="http://sodipodi.sourceforge.net/DTD/sodipodi-0.dtd" xmlns:inkscape="http://www.inkscape.org/namespaces/inkscape" viewBox="0 0 8.4666665 10.583333625" version="1.1" x="0px" y="0px"><g><path style="color:#000000;font-style:normal;font-variant:normal;font-weight:normal;font-stretch:normal;font-size:medium;line-height:normal;font-family:sans-serif;font-variant-ligatures:normal;font-variant-position:normal;font-variant-caps:normal;font-variant-numeric:normal;font-variant-alternates:normal;font-feature-settings:normal;text-indent:0;text-align:start;text-decoration:none;text-decoration-line:none;text-decoration-style:solid;text-decoration-color:#000000;letter-spacing:normal;word-spacing:normal;text-transform:none;writing-mode:lr-tb;direction:ltr;text-orientation:mixed;dominant-baseline:auto;baseline-shift:baseline;text-anchor:start;white-space:normal;shape-padding:0;clip-rule:nonzero;display:inline;overflow:visible;visibility:visible;opacity:1;isolation:auto;mix-blend-mode:normal;color-interpolation:sRGB;color-interpolation-filters:linearRGB;solid-color:#000000;solid-opacity:1;vector-effect:none;fill:#000000;fill-opacity:1;fill-rule:nonzero;stroke:none;stroke-width:1.99999988;stroke-linecap:round;stroke-linejoin:round;stroke-miterlimit:4;stroke-dasharray:none;stroke-dashoffset:0;stroke-opacity:1;paint-order:normal;color-rendering:auto;image-rendering:auto;shape-rendering:auto;text-rendering:auto;enable-background:accumulate" d="M 28.974609 2 A 1.0001001 1.0001001 0 0 0 28.279297 2.3027344 L 22.980469 7.609375 C 22.107257 7.0213837 21.093055 6.7246094 20.078125 6.7246094 C 18.745692 6.7246094 17.414864 7.2335734 16.402344 8.2460938 L 15.800781 8.8457031 A 1.0001001 1.0001001 0 0 0 15.515625 9.1328125 A 1.0001001 1.0001001 0 0 0 15.513672 9.1347656 L 12.810547 11.833984 A 1.0001001 1.0001001 0 0 0 12.570312 12.076172 L 9.8222656 14.822266 A 1.0001001 1.0001001 0 0 0 9.6132812 15.03125 L 7.4570312 17.185547 L 6.6816406 16.410156 A 1.0001 1.0001 0 0 0 5.2617188 16.410156 L 2.2910156 19.380859 A 1.0001 1.0001 0 0 0 2.296875 20.794922 L 4.5566406 23.054688 L 2.2910156 25.320312 A 1.0001 1.0001 0 0 0 2.296875 26.736328 L 5.2675781 29.705078 A 1.0001 1.0001 0 0 0 6.6757812 29.705078 L 8.9414062 27.439453 L 11.207031 29.705078 A 1.0001 1.0001 0 0 0 12.617188 29.705078 L 15.585938 26.736328 A 1.0001 1.0001 0 0 0 15.591797 25.320312 L 14.8125 24.541016 L 23.755859 15.597656 C 25.539593 13.813923 25.749252 11.041391 24.390625 9.0214844 L 29.697266 3.7207031 A 1.0001001 1.0001001 0 0 0 28.974609 2 z M 20.078125 8.7109375 C 20.795862 8.7109375 21.509525 8.9670453 22.103516 9.4570312 A 1.0001001 1.0001001 0 0 0 22.544922 9.8984375 C 23.592305 11.165596 23.535815 12.989576 22.345703 14.179688 L 13.398438 23.126953 L 8.8730469 18.601562 L 10.425781 17.046875 L 11.205078 17.828125 A 1.0001001 1.0001001 0 1 0 12.615234 16.410156 L 11.839844 15.632812 L 13.396484 14.076172 L 14.173828 14.851562 A 1.0001001 1.0001001 0 1 0 15.589844 13.443359 L 14.808594 12.662109 L 16.363281 11.107422 L 17.140625 11.884766 A 1.0021986 1.0021986 0 1 0 18.558594 10.466797 L 17.779297 9.6894531 L 17.8125 9.65625 C 18.445515 9.0232355 19.263046 8.7109375 20.078125 8.7109375 z M 5.9707031 18.529297 L 6.6894531 19.248047 A 1.0001 1.0001 0 0 0 6.6953125 19.255859 A 1.0001 1.0001 0 0 0 6.7460938 19.310547 L 12.689453 25.253906 A 1.0001 1.0001 0 0 0 12.746094 25.304688 A 1.0001 1.0001 0 0 0 12.763672 25.320312 L 13.466797 26.025391 L 11.90625 27.585938 L 9.6464844 25.326172 L 6.6757812 22.355469 A 1.0001 1.0001 0 0 0 6.6035156 22.283203 A 1.0001 1.0001 0 0 0 6.5976562 22.279297 L 4.4101562 20.091797 L 5.9707031 18.529297 z M 5.9707031 24.470703 L 7.5273438 26.025391 L 5.9667969 27.585938 L 4.4101562 26.03125 L 5.9707031 24.470703 z " transform="scale(0.26458333)"/></g><text x="0" y="23.4666669" fill="#000000" font-size="5px" font-weight="bold" font-family="'Helvetica Neue', Helvetica, Arial-Unicode, Arial, Sans-serif">Created by Ardiansyah</text><text x="0" y="28.4666669" fill="#000000" font-size="5px" font-weight="bold" font-family="'Helvetica Neue', Helvetica, Arial-Unicode, Arial, Sans-serif">from the Noun Project</text></svg>