<svg xmlns="http://www.w3.org/2000/svg" width="740.973" height="515.766" viewBox="0 0 740.973 515.766">
  <g id="Group_8" data-name="Group 8" transform="translate(0 0)">
    <path id="Path_6" data-name="Path 6" d="M885.245,220.254l-57.16.557c-2.687-13.227-11.714-47.932-3.584-57.4a13.913,13.913,0,0,1,14.656-12.45h0c8.859-13.868,23.616-11.786,33.59-3.125,10.038,3.464,13.822,9.617,12.5,17.967,7.434,6.507,8.805,14.423,5.468,23.435Z" transform="translate(-266.135 -140.947)" fill="#2f2e41"/>
    <path id="Path_7" data-name="Path 7" d="M881.543,268.118l-41.24-5.71-8.248-12.055c11.362-7.536,15.382-18.063,10.151-32.357l28.55-.634c-1.338,12.729,2.872,22.585,14.592,28.55Z" transform="translate(-267.935 -153.599)" fill="#ffb9b9"/>
    <path id="Path_8" data-name="Path 8" d="M829.938,723.83l-1.577,21.557a6.863,6.863,0,0,0,7.259,7.351l11.073-.671a3.5,3.5,0,0,0,3.184-4.343l-6.146-24.585Z" transform="translate(-267.321 -237.341)" fill="#e6e6e6"/>
    <path id="Path_9" data-name="Path 9" d="M871.975,723.14l-6.146,24.585a3.5,3.5,0,0,0,3.184,4.343l11.073.671a6.862,6.862,0,0,0,7.259-7.351l-1.577-21.557Z" transform="translate(-273.51 -237.341)" fill="#e6e6e6"/>
    <path id="Path_10" data-name="Path 10" d="M719.747,542.544l-14.943-1.5L689.928,382.027l-5.622,158.5-14.681-.526L644.881,320.485h94.533Z" transform="translate(-106.774 -53.063)" fill="#74b8d0"/>
    <circle id="Ellipse_1" data-name="Ellipse 1" cx="28.55" cy="28.55" r="28.55" transform="translate(561.582 17.447)" fill="#ffb9b9"/>
    <path id="Path_11" data-name="Path 11" d="M907.988,431.51l-115.471,1.269c17.136-65.236,27.387-125.836,9.517-167.5l28.55-13.958c13.766,14.359,29.1,12.878,45.681-1.269l27.281,6.979C898.874,311.667,900.968,370.177,907.988,431.51Z" transform="translate(-261.389 -159.012)" fill="#74b8d0"/>
    <path id="Path_12" data-name="Path 12" d="M754.5,376.847l71.693,28.55,16.029,4.714a5.545,5.545,0,0,0,6.944-3.975h0a5.545,5.545,0,0,0-3.157-6.425l-16.644-5.1-50.122-29.185,10.469-27.6-21.889-11.737Z" transform="translate(-255.094 -171.601)" fill="#ffb9b9"/>
    <path id="Path_13" data-name="Path 13" d="M755.26,315.254c13.64,5.321,24.489,14.4,32.992,26.647L814.9,303.2,795.865,268.3Z" transform="translate(-255.22 -162.034)" fill="#74b8d0"/>
    <path id="Path_14" data-name="Path 14" d="M890.084,185.009c-11.588-2.986-22.981-3.4-34.055.391-7.055,3.417-15.527,3.1-24.949.287V157.2l50.866,1.356Z" transform="translate(-267.774 -143.638)" fill="#2f2e41"/>
    <path id="Path_15" data-name="Path 15" d="M838.456,347.053A8.465,8.465,0,0,0,830,355.509l3.338,69.869a8.465,8.465,0,0,0,8.456,8.456h38.16a8.465,8.465,0,0,0,8.456-8.456l3.338-69.869a8.465,8.465,0,0,0-8.456-8.456Z" transform="translate(-267.595 -175.072)" fill="#3f3d56"/>
    <path id="Path_16" data-name="Path 16" d="M951.793,370.679,889.3,395.562l-4.715,1.877c-.15.058-.3.108-.459.159l-15.8,4.648c-2.019.592-4.815-2.128-6.45-4.005a5.077,5.077,0,0,1-.133-6.617,5.624,5.624,0,0,1,.718-.693,4.664,4.664,0,0,1,2.086-.918l15.779-3.1a5.286,5.286,0,0,0,1.61-.6l7.36-4.289,38.208-22.246a5.189,5.189,0,0,0,2.245-6.325l-7.293-19.234a5.183,5.183,0,0,1,2.395-6.408l12.083-6.475a5.178,5.178,0,0,1,7.46,3.254l10.489,39.952a5.19,5.19,0,0,1-3.1,6.141Z" transform="translate(-272.66 -170.711)" fill="#ffb9b9"/>
    <path id="Path_17" data-name="Path 17" d="M962.406,306.639c-13.64,5.321-24.49,14.4-32.992,26.647l-26.647-38.7L921.8,258.42Z" transform="translate(-279.643 -160.397)" fill="#74b8d0"/>
    <path id="Path_18" data-name="Path 18" d="M877.225,222.474c-12.49,5.2-25.586,4.984-39.218,0,3.967-6.771-1.963-12.073-5.007-18.908l50.9-1.513C880.008,207.991,874.264,215.006,877.225,222.474Z" transform="translate(-268.092 -151.064)" fill="#fff"/>
    <path id="Path_19" data-name="Path 19" d="M737.237,61.023l-.591-.59.834-.834,4.985-5.818.634.542-5.007,5.841Z" transform="translate(-121.967 -8.905)" fill="#fff"/>
    <rect id="Rectangle_15" data-name="Rectangle 15" width="0.835" height="6.517" transform="translate(560.883 49.224) rotate(-50.195)" fill="#fff"/>
    <rect id="Rectangle_16" data-name="Rectangle 16" width="16.319" height="0.835" transform="matrix(0.537, -0.844, 0.844, 0.537, 607.944, 70.791)" fill="#fff"/>
    <rect id="Rectangle_17" data-name="Rectangle 17" width="0.835" height="16.319" transform="translate(561.636 57.468) rotate(-32.471)" fill="#fff"/>
    <path id="Path_20" data-name="Path 20" d="M890.64,392.768v15.117l-5.263,2.1c-.168.065-.335.121-.512.177l-17.632,5.188c-2.254.661-5.374-2.375-7.2-4.471a5.668,5.668,0,0,1-.149-7.386,6.289,6.289,0,0,1,.8-.773,5.205,5.205,0,0,1,2.329-1.025l17.613-3.465a5.9,5.9,0,0,0,1.8-.671Z" transform="translate(-272.328 -182.641)" fill="#fff"/>
    <path id="Path_21" data-name="Path 21" d="M901.951,313.191h-3.015c0-42.648-8.781-72.369-17.338-72.369l-.754-3.015c7.674,0,12.567,12.37,15.32,22.747C899.9,274.621,901.951,293.315,901.951,313.191Z" transform="translate(-276.013 -156.984)" fill="#3f3d56"/>
    <path id="Path_22" data-name="Path 22" d="M822.426,302.936h-3.015c0-39.059,8.842-63.323,21.861-63.323l-.754,3.015C831.513,242.629,822.426,261.276,822.426,302.936Z" transform="translate(-265.842 -157.283)" fill="#3f3d56"/>
    <circle id="Ellipse_2" data-name="Ellipse 2" cx="7.538" cy="7.538" r="7.538" transform="translate(616.892 149.422)" fill="#3f3d56"/>
    <path id="Path_23" data-name="Path 23" d="M807.971,333.294h-3.015c0-10.807,6.087-19.6,13.569-19.6v3.015C812.706,316.709,807.971,324.149,807.971,333.294Z" transform="translate(-263.448 -169.549)" fill="#3f3d56"/>
    <path id="Path_24" data-name="Path 24" d="M834.787,333.294h-3.015c0-9.145-4.734-16.585-10.554-16.585v-3.015C828.7,313.694,834.787,322.487,834.787,333.294Z" transform="translate(-266.141 -169.549)" fill="#3f3d56"/>
    <circle id="Ellipse_3" data-name="Ellipse 3" cx="3.015" cy="3.015" r="3.015" transform="translate(564.123 161.484)" fill="#3f3d56"/>
    <circle id="Ellipse_4" data-name="Ellipse 4" cx="3.015" cy="3.015" r="3.015" transform="translate(540 161.484)" fill="#3f3d56"/>
    <path id="Path_25" data-name="Path 25" d="M358.1,204.791l-52.958,8.968a5.36,5.36,0,0,1-6.066-3.849c-3.826-13.809-11.826-31.824-4.059-40.868a14.857,14.857,0,0,1,15.65-13.295h0c9.461-14.809,25.218-12.585,35.869-3.337,10.719,3.7,14.76,10.269,13.346,19.186,4.63,4.053,7.058,8.619,7.57,13.629a19.684,19.684,0,0,1-5.385,15.312Z" transform="translate(-178.476 -141.627)" fill="#2f2e41"/>
    <path id="Path_26" data-name="Path 26" d="M353.257,260.859,312.2,258.444c4.023-9.235,5.631-18.127,4.025-26.565h30.589C346.748,238.358,349.972,249.565,353.257,260.859Z" transform="translate(-181.863 -156.003)" fill="#9f616a"/>
    <path id="Path_27" data-name="Path 27" d="M301.842,721.09l-1.684,23.02a7.328,7.328,0,0,0,7.752,7.849l11.824-.716a3.738,3.738,0,0,0,3.4-4.637l-6.563-26.252Z" transform="translate(-179.865 -236.88)" fill="#e6e6e6"/>
    <path id="Path_28" data-name="Path 28" d="M346.73,720.353l-6.563,26.252a3.738,3.738,0,0,0,3.4,4.637l11.824.716a7.328,7.328,0,0,0,7.752-7.849l-1.684-23.02Z" transform="translate(-186.474 -236.88)" fill="#e6e6e6"/>
    <path id="Path_29" data-name="Path 29" d="M194.757,537.068l-15.956-1.6L162.915,365.661l-6,169.258-15.676-.562L114.813,299.944H215.76Z" transform="translate(-19.01 -49.662)" fill="#74b8d0"/>
    <circle id="Ellipse_5" data-name="Ellipse 5" cx="30.487" cy="30.487" r="30.487" transform="translate(119.98 24.674)" fill="#9f616a"/>
    <path id="Path_30" data-name="Path 30" d="M365,185.618c-12.374-2.155-24.54-2.451-36.366.283-7.533,2.466-16.58,2.239-26.641.207V165.548l54.316.979Z" transform="translate(-180.172 -145.02)" fill="#2f2e41"/>
    <path id="Path_31" data-name="Path 31" d="M351.268,232.043c-13.337,5.548-27.322,5.322-41.879,0,4.236-7.23-2.1-12.892-5.346-20.191l54.353-1.615C354.24,216.578,348.107,224.069,351.268,232.043Z" transform="translate(-180.512 -152.419)" fill="#fff"/>
    <rect id="Rectangle_18" data-name="Rectangle 18" width="0.835" height="6.959" transform="translate(119.256 55.91) rotate(-50.195)" fill="#fff"/>
    <rect id="Rectangle_19" data-name="Rectangle 19" width="17.427" height="0.835" transform="matrix(0.537, -0.844, 0.844, 0.537, 169.511, 78.978)" fill="#fff"/>
    <rect id="Rectangle_20" data-name="Rectangle 20" width="0.835" height="17.427" transform="translate(120.059 64.725) rotate(-32.471)" fill="#fff"/>
    <path id="Path_32" data-name="Path 32" d="M262.229,355.643l-23.345-14.49,19.909-58.309a27.507,27.507,0,0,1,12.024-14.282l6.707-3.883.583,58.823Z" transform="translate(-169.723 -161.434)" fill="#74b8d0"/>
    <path id="Path_33" data-name="Path 33" d="M366.851,381.407,363.4,351.824c-.184-15.615,2.472-30.711,8.806-44.621l3.22-43.469L340,249.245c-.109.722-.2,1.443-.3,2.165l-16.6,8.3L306.91,256.03l.09-5.175-32.2,14.49c10.648,49.505,4.841,100.914-13.471,161.636l42.42,11.6.353-20.369,37.805-2.7c.389,6.608.7,13.1.884,19.447,21.332,7.854,22.065,7.723,41.5-3.521A228.1,228.1,0,0,1,366.851,381.407Z" transform="translate(-173.439 -158.878)" fill="#74b8d0"/>
    <path id="Path_34" data-name="Path 34" d="M285.84,207.771l-21.734-7.245L229.34,160.054l10.616-34.391,48.3,67.619Z" transform="translate(-37.972 -20.806)" fill="#74b8d0"/>
    <path id="Path_35" data-name="Path 35" d="M371.389,400.3a6.046,6.046,0,0,0,7.222,4.555l18.45-4.178L394.395,388.9l-18.45,4.177a6.039,6.039,0,0,0-4.555,7.222Z" transform="translate(-191.637 -182.001)" fill="#e6e6e6"/>
    <path id="Path_36" data-name="Path 36" d="M391.309,379.845l10.465,19.32c17.6-4.909,32.856-20.386,47.494-38.639l-4.025-12.88-24.955,6.44Z" transform="translate(-194.96 -175.17)" fill="#74b8d0"/>
    <path id="Path_37" data-name="Path 37" d="M71.79,172.661l20.09,3.587L137.8,241.54,113.4,235.8Z" transform="translate(-11.886 -28.588)" fill="#e6e6e6"/>
    <path id="Path_38" data-name="Path 38" d="M223.186,312.65a1.709,1.709,0,0,0-1.4,2.647l42.922,65.124a1.7,1.7,0,0,0,1.034.722l19.971,4.7A1.706,1.706,0,0,0,287.5,383.2L240.37,316.193a1.7,1.7,0,0,0-1.1-.7l-15.767-2.816A1.851,1.851,0,0,0,223.186,312.65Z" transform="translate(-166.845 -169.376)" fill="#3f3d56"/>
    <path id="Path_39" data-name="Path 39" d="M255.608,368.076l1.193,12.016,18.824-1.869a6.037,6.037,0,1,0-1.193-12.016Z" transform="translate(-172.492 -178.239)" fill="#e6e6e6"/>
    <path id="Path_40" data-name="Path 40" d="M235.991,364.786A15.528,15.528,0,0,0,251.5,380.21h3.1l2.253-18.779-18.658-6.717Z" transform="translate(-169.244 -176.341)" fill="#74b8d0"/>
    <path id="Path_41" data-name="Path 41" d="M211.282,70.253l-.59-.59.891-.891,5.325-6.214.633.542-5.346,6.237Z" transform="translate(-34.884 -10.358)" fill="#fff"/>
    <rect id="Rectangle_21" data-name="Rectangle 21" width="740.973" height="1.669" transform="translate(0 514.097)" fill="#3f3d56"/>
    <path id="Path_42" data-name="Path 42" d="M495,709.829H670.23V497.287c0-11.255-11.086-20.41-24.711-20.41H519.711c-13.626,0-24.711,9.156-24.711,20.41Z" transform="translate(-212.129 -196.567)" fill="#e6e6e6"/>
    <path id="Path_43" data-name="Path 43" d="M511,706.34H659.528V526.185c0-9.54-9.4-17.3-20.945-17.3H531.945c-11.55,0-20.946,7.761-20.946,17.3Z" transform="translate(-214.778 -201.867)" fill="#fff"/>
    <path id="Path_44" data-name="Path 44" d="M491.855,457.053c-4.331,0-7.855,2.911-7.855,6.488v18.728c0,3.577,3.524,6.488,7.855,6.488H669.733c4.331,0,7.855-2.911,7.855-6.488V463.541c0-3.577-3.523-6.488-7.855-6.488Z" transform="translate(-210.307 -193.285)" fill="#3f3d56"/>
    <path id="Path_45" data-name="Path 45" d="M535.658,717.836a7.7,7.7,0,0,0-7.674,7.674h0a7.7,7.7,0,0,0,7.674,7.674h14.364V717.836Z" transform="translate(-217.59 -236.463)" fill="#3f3d56"/>
    <path id="Path_46" data-name="Path 46" d="M567.422,717.836H553.452v15.348h13.971a7.7,7.7,0,0,0,7.674-7.674h0a7.7,7.7,0,0,0-7.674-7.674Z" transform="translate(-221.806 -236.463)" fill="#74b8d0"/>
    <path id="Path_47" data-name="Path 47" d="M572.43,720.088a7.63,7.63,0,0,1,1.879,5.008h0a7.7,7.7,0,0,1-7.674,7.674H553.452v.787h13.971a7.7,7.7,0,0,0,7.674-7.674h0a7.657,7.657,0,0,0-2.666-5.795Z" transform="translate(-221.806 -236.836)" opacity="0.2"/>
    <path id="Path_48" data-name="Path 48" d="M612.232,578.833a7.7,7.7,0,0,0-10.848-.32h0a7.7,7.7,0,0,0-.32,10.848l9.853,10.452,11.168-10.528Z" transform="translate(-229.345 -213.051)" fill="#3f3d56"/>
    <path id="Path_49" data-name="Path 49" d="M633.389,601.315l-9.583-10.166-11.168,10.528,9.583,10.166a7.7,7.7,0,0,0,10.848.32h0A7.7,7.7,0,0,0,633.389,601.315Z" transform="translate(-231.606 -215.487)" fill="#74b8d0"/>
    <path id="Path_50" data-name="Path 50" d="M635.456,608.23a7.63,7.63,0,0,1-2.355,4.8h0a7.7,7.7,0,0,1-10.848-.32l-9.043-9.593-.573.54,9.583,10.166a7.7,7.7,0,0,0,10.848.32h0A7.657,7.657,0,0,0,635.456,608.23Z" transform="translate(-231.606 -217.469)" opacity="0.2"/>
    <path id="Path_51" data-name="Path 51" d="M563.233,607.833a7.7,7.7,0,0,0-10.848-.32h0a7.7,7.7,0,0,0-.32,10.848l9.853,10.452,11.168-10.528Z" transform="translate(-221.232 -217.852)" fill="#3f3d56"/>
    <path id="Path_52" data-name="Path 52" d="M584.389,630.315l-9.583-10.166-11.168,10.528,9.583,10.166a7.7,7.7,0,0,0,10.848.32h0A7.7,7.7,0,0,0,584.389,630.315Z" transform="translate(-223.493 -220.289)" fill="#74b8d0"/>
    <path id="Path_53" data-name="Path 53" d="M586.456,637.23a7.629,7.629,0,0,1-2.355,4.8h0a7.7,7.7,0,0,1-10.848-.32l-9.043-9.593-.573.54,9.583,10.166a7.7,7.7,0,0,0,10.848.32h0a7.657,7.657,0,0,0,2.388-5.915Z" transform="translate(-223.493 -222.271)" opacity="0.2"/>
    <path id="Path_54" data-name="Path 54" d="M612.232,634.833a7.7,7.7,0,0,0-10.848-.32h0a7.7,7.7,0,0,0-.32,10.848l9.853,10.452,11.168-10.528Z" transform="translate(-229.345 -222.323)" fill="#3f3d56"/>
    <path id="Path_55" data-name="Path 55" d="M633.389,657.315l-9.583-10.166-11.168,10.528,9.583,10.166a7.7,7.7,0,0,0,10.848.32h0a7.7,7.7,0,0,0,.32-10.848Z" transform="translate(-231.606 -224.759)" fill="#74b8d0"/>
    <path id="Path_56" data-name="Path 56" d="M635.456,664.23a7.63,7.63,0,0,1-2.355,4.8h0a7.7,7.7,0,0,1-10.848-.32l-9.043-9.593-.573.54,9.583,10.166a7.7,7.7,0,0,0,10.848.32h0A7.657,7.657,0,0,0,635.456,664.23Z" transform="translate(-231.606 -226.741)" opacity="0.2"/>
    <path id="Path_57" data-name="Path 57" d="M640.588,690.16a7.7,7.7,0,0,0,.188-10.851h0a7.7,7.7,0,0,0-10.851-.188L619.594,689.1l10.663,11.039Z" transform="translate(-232.758 -229.698)" fill="#3f3d56"/>
    <path id="Path_58" data-name="Path 58" d="M618.429,711.6l10.049-9.706-10.663-11.039-10.049,9.706a7.7,7.7,0,0,0-.188,10.851h0a7.7,7.7,0,0,0,10.851.188Z" transform="translate(-230.413 -231.995)" fill="#74b8d0"/>
    <path id="Path_59" data-name="Path 59" d="M613.522,713.723a7.63,7.63,0,0,1-4.831-2.3h0a7.7,7.7,0,0,1,.188-10.851l9.482-9.159-.547-.566-10.049,9.706a7.7,7.7,0,0,0-.188,10.851h0A7.657,7.657,0,0,0,613.522,713.723Z" transform="translate(-230.413 -231.995)" opacity="0.2"/>
    <path id="Path_60" data-name="Path 60" d="M574.588,661.16a7.7,7.7,0,0,0,.188-10.851h0a7.7,7.7,0,0,0-10.851-.188L553.594,660.1l10.663,11.039Z" transform="translate(-221.83 -224.896)" fill="#3f3d56"/>
    <path id="Path_61" data-name="Path 61" d="M552.429,682.6l10.049-9.706-10.663-11.039-10.049,9.706a7.7,7.7,0,0,0-.188,10.851h0A7.7,7.7,0,0,0,552.429,682.6Z" transform="translate(-219.485 -227.193)" fill="#74b8d0"/>
    <path id="Path_62" data-name="Path 62" d="M547.522,684.723a7.63,7.63,0,0,1-4.831-2.3h0a7.7,7.7,0,0,1,.188-10.851l9.482-9.159-.547-.566-10.049,9.706a7.7,7.7,0,0,0-.188,10.851h0A7.657,7.657,0,0,0,547.522,684.723Z" transform="translate(-219.485 -227.193)" opacity="0.2"/>
    <path id="Path_63" data-name="Path 63" d="M668.588,626.16a7.7,7.7,0,0,0,.188-10.851h0a7.7,7.7,0,0,0-10.851-.188L647.594,625.1l10.663,11.039Z" transform="translate(-237.394 -219.101)" fill="#3f3d56"/>
    <path id="Path_64" data-name="Path 64" d="M646.429,647.6l10.049-9.706-10.663-11.039-10.049,9.706a7.7,7.7,0,0,0-.188,10.851h0a7.7,7.7,0,0,0,10.851.188Z" transform="translate(-235.049 -221.398)" fill="#74b8d0"/>
    <path id="Path_65" data-name="Path 65" d="M641.522,649.723a7.63,7.63,0,0,1-4.831-2.3h0a7.7,7.7,0,0,1,.188-10.851l9.482-9.159-.547-.566-10.049,9.706a7.7,7.7,0,0,0-.188,10.851h0a7.657,7.657,0,0,0,5.944,2.315Z" transform="translate(-235.049 -221.398)" opacity="0.2"/>
    <path id="Path_66" data-name="Path 66" d="M649.233,700.833a7.7,7.7,0,0,0-10.848-.32h0a7.7,7.7,0,0,0-.32,10.848l9.853,10.452,11.168-10.528Z" transform="translate(-235.471 -233.25)" fill="#3f3d56"/>
    <path id="Path_67" data-name="Path 67" d="M670.389,723.315l-9.583-10.166-11.168,10.528,9.583,10.166a7.7,7.7,0,0,0,10.848.32h0A7.7,7.7,0,0,0,670.389,723.315Z" transform="translate(-237.732 -235.687)" fill="#74b8d0"/>
    <path id="Path_68" data-name="Path 68" d="M672.456,730.23a7.629,7.629,0,0,1-2.355,4.8h0a7.7,7.7,0,0,1-10.848-.32l-9.043-9.593-.573.54,9.583,10.166a7.7,7.7,0,0,0,10.848.32h0A7.657,7.657,0,0,0,672.456,730.23Z" transform="translate(-237.732 -237.669)" opacity="0.2"/>
    <path id="Path_69" data-name="Path 69" d="M584.233,699.833a7.7,7.7,0,0,0-10.848-.32h0a7.7,7.7,0,0,0-.32,10.848l9.853,10.452,11.168-10.528Z" transform="translate(-224.709 -233.085)" fill="#3f3d56"/>
    <path id="Path_70" data-name="Path 70" d="M605.389,722.315l-9.583-10.166-11.168,10.528,9.583,10.166a7.7,7.7,0,0,0,10.848.32h0a7.7,7.7,0,0,0,.32-10.848Z" transform="translate(-226.97 -235.522)" fill="#74b8d0"/>
    <path id="Path_71" data-name="Path 71" d="M607.456,729.23a7.63,7.63,0,0,1-2.355,4.8h0a7.7,7.7,0,0,1-10.848-.32l-9.043-9.593-.573.54,9.583,10.166a7.7,7.7,0,0,0,10.848.32h0a7.657,7.657,0,0,0,2.388-5.915Z" transform="translate(-226.97 -237.503)" opacity="0.2"/>
    <path id="Path_72" data-name="Path 72" d="M600.766,665.12a11.067,11.067,0,1,1-13.281-10.846,11.181,11.181,0,0,1,4.427,0A11.067,11.067,0,0,1,600.766,665.12Z" transform="translate(-225.975 -225.902)" fill="#74b8d0"/>
    <path id="Path_73" data-name="Path 73" d="M593.669,654.274v21.692a11.175,11.175,0,0,1-4.427,0V654.274a11.179,11.179,0,0,1,4.427,0Z" transform="translate(-227.732 -225.902)" opacity="0.2"/>
    <path id="Path_74" data-name="Path 74" d="M606.766,612.12a11.067,11.067,0,1,1-13.281-10.846,11.181,11.181,0,0,1,4.427,0,11.067,11.067,0,0,1,8.854,10.846Z" transform="translate(-226.969 -217.127)" fill="#74b8d0"/>
    <path id="Path_75" data-name="Path 75" d="M599.669,601.274v21.692a11.178,11.178,0,0,1-4.427,0V601.274a11.179,11.179,0,0,1,4.427,0Z" transform="translate(-228.726 -217.127)" opacity="0.2"/>
    <path id="Path_76" data-name="Path 76" d="M606.766,688.12a11.067,11.067,0,1,1-8.854-10.846,11.068,11.068,0,0,1,8.854,10.846Z" transform="translate(-226.969 -229.71)" fill="#74b8d0"/>
    <path id="Path_77" data-name="Path 77" d="M599.669,677.274v21.692a11.178,11.178,0,0,1-4.427,0V677.274a11.177,11.177,0,0,1,4.427,0Z" transform="translate(-228.726 -229.711)" opacity="0.2"/>
    <path id="Path_78" data-name="Path 78" d="M639.766,725.12a11.067,11.067,0,1,1-13.281-10.846,11.181,11.181,0,0,1,4.427,0A11.067,11.067,0,0,1,639.766,725.12Z" transform="translate(-232.433 -235.837)" fill="#74b8d0"/>
    <path id="Path_79" data-name="Path 79" d="M632.669,714.274v21.692a11.176,11.176,0,0,1-4.427,0V714.274a11.18,11.18,0,0,1,4.427,0Z" transform="translate(-234.19 -235.837)" opacity="0.2"/>
    <path id="Path_80" data-name="Path 80" d="M669.589,658.625a11.067,11.067,0,1,1-13.953-1.152,11.067,11.067,0,0,1,13.953,1.152Z" transform="translate(-237.931 -226.146)" fill="#74b8d0"/>
    <path id="Path_81" data-name="Path 81" d="M655.978,657.86,671.6,672.913a11.178,11.178,0,0,1-3.072,3.187l-15.618-15.053a11.18,11.18,0,0,1,3.072-3.187Z" transform="translate(-238.273 -226.533)" opacity="0.2"/>
    <path id="Path_82" data-name="Path 82" d="M673.589,687.625a11.067,11.067,0,1,1-17.025,2.035,11.181,11.181,0,0,1,3.072-3.187,11.067,11.067,0,0,1,13.953,1.152Z" transform="translate(-238.593 -230.948)" fill="#74b8d0"/>
    <path id="Path_83" data-name="Path 83" d="M659.978,686.86,675.6,701.913a11.177,11.177,0,0,1-3.072,3.187l-15.618-15.053A11.182,11.182,0,0,1,659.978,686.86Z" transform="translate(-238.935 -231.334)" opacity="0.2"/>
    <path id="Path_84" data-name="Path 84" d="M554.589,694.625a11.067,11.067,0,1,1-17.025,2.035,11.181,11.181,0,0,1,3.072-3.187A11.067,11.067,0,0,1,554.589,694.625Z" transform="translate(-218.891 -232.107)" fill="#74b8d0"/>
    <path id="Path_85" data-name="Path 85" d="M540.978,693.86,556.6,708.913a11.178,11.178,0,0,1-3.072,3.187l-15.618-15.053A11.179,11.179,0,0,1,540.978,693.86Z" transform="translate(-219.233 -232.493)" opacity="0.2"/>
    <rect id="Rectangle_22" data-name="Rectangle 22" width="4.172" height="30.874" transform="translate(295.805 263.768)" opacity="0.2"/>
    <rect id="Rectangle_23" data-name="Rectangle 23" width="4.172" height="30.874" transform="translate(320.004 263.768)" opacity="0.2"/>
    <rect id="Rectangle_24" data-name="Rectangle 24" width="4.172" height="30.874" transform="translate(344.202 263.768)" opacity="0.2"/>
    <rect id="Rectangle_25" data-name="Rectangle 25" width="4.172" height="30.874" transform="translate(368.4 263.768)" opacity="0.2"/>
    <rect id="Rectangle_26" data-name="Rectangle 26" width="4.172" height="30.874" transform="translate(392.599 263.768)" opacity="0.2"/>
    <rect id="Rectangle_27" data-name="Rectangle 27" width="4.172" height="30.874" transform="translate(416.797 263.768)" opacity="0.2"/>
    <rect id="Rectangle_28" data-name="Rectangle 28" width="4.172" height="30.874" transform="translate(440.996 263.768)" opacity="0.2"/>
  </g>
</svg>
