<svg id="Vaccinator" xmlns="http://www.w3.org/2000/svg" width="356.823" height="92.136" viewBox="0 0 356.823 92.136">
  <g id="Group_10" data-name="Group 10" transform="translate(-5870.177 -1416)">
    <g id="noun_Shield_1745027" transform="translate(5870.177 1416)">
      <g id="Group_9" data-name="Group 9" transform="translate(0)">
        <path id="Path_87" data-name="Path 87" d="M38.563,0C49.3,12.816,59.346,14.894,75.625,14.548c5.2,35.33-2.425,62.347-37.062,77.588C4.272,76.9-3.348,49.878,1.5,14.548,17.781,14.894,27.826,12.816,38.563,0Z" transform="translate(-0.177)" fill="#74b8d0"/>
      </g>
    </g>
    <g id="noun_vaccines_1496011" transform="translate(5886.082 1438.998)">
      <g id="Group" transform="translate(0 0)">
        <path id="Compound_Path" data-name="Compound Path" d="M53.574,7.612a1.642,1.642,0,0,0-2.3,0L41.2,17.63a8.211,8.211,0,0,0-10.4.985L14.324,35.093l-.712-.766a1.645,1.645,0,0,0-2.354,2.3l.766.766,2.3,2.3L16.732,42.1l-2.956,2.956L9.889,41.169a1.645,1.645,0,0,0-2.3,2.354l3.887,3.887,2.3,2.3L17.663,53.6a1.642,1.642,0,0,0,2.3-2.3L16.075,47.41l3.011-2.956,2.409,2.409,2.3,2.3.766.766a1.645,1.645,0,1,0,2.3-2.354l-.766-.766L42.571,30.385a8.211,8.211,0,0,0,.985-10.4L53.574,9.966a1.642,1.642,0,0,0,0-2.354ZM40.217,28.031,23.794,44.509,21.385,42.1l-2.3-2.3-2.409-2.409,2.9-2.9,5.31,5.31,2.3-2.3-5.31-5.31,1.7-1.7L27.681,34.6l2.354-2.3L25.929,28.2l1.7-1.7,5.31,5.31,2.3-2.3-5.31-5.31,1.7-1.7,4.106,4.106,2.3-2.3-4-4.106a4.927,4.927,0,0,1,6.076.712l.164.164a4.927,4.927,0,0,1,0,6.952Z" transform="translate(-7.095 -7.142)" fill="#fff"/>
      </g>
    </g>
    <g id="noun_Plus_923613" transform="translate(5875.933 1420.849)">
      <path id="Path_86" data-name="Path 86" d="M120.572,110.085a2.384,2.384,0,0,1-2.378,2.378h-5.732v5.729a2.384,2.384,0,0,1-2.378,2.378h0a2.384,2.384,0,0,1-2.378-2.378v-5.729h-5.729a2.384,2.384,0,0,1-2.378-2.378h0a2.384,2.384,0,0,1,2.378-2.378h5.729v-5.729a2.384,2.384,0,0,1,2.378-2.378h0a2.384,2.384,0,0,1,2.378,2.378v5.729h5.729a2.385,2.385,0,0,1,2.38,2.378Z" transform="translate(-99.6 -99.6)" fill="#fff"/>
    </g>
  </g>
  <g id="Component_6_1" data-name="Component 6 – 1" transform="translate(101.823 15.635)">
    <text id="Vaccinator-2" data-name="Vaccinator" fill="#333" stroke="#333" stroke-width="1" font-size="52" font-family="RalewayDots-Regular, Raleway Dots "><tspan x="3.448" y="48">Vaccinator</tspan></text>
  </g>
</svg>
