<svg xmlns="http://www.w3.org/2000/svg" width="65.601" height="78.571" viewBox="0 0 65.601 78.571">
  <g id="Logo" transform="translate(-5870.177 -1416)">
    <g id="noun_Shield_1745027" transform="translate(5870.177 1416)">
      <g id="Group_9" data-name="Group 9" transform="translate(0)">
        <path id="Path_87" data-name="Path 87" d="M32.912,0c9.157,10.929,17.723,12.7,31.606,12.406,4.431,30.129-2.068,53.169-31.606,66.165C3.669,65.575-2.829,42.535,1.306,12.406,15.189,12.7,23.755,10.929,32.912,0Z" transform="translate(-0.177)" fill="#fff"/>
      </g>
    </g>
    <g id="noun_vaccines_1496011" transform="translate(5883.74 1435.612)">
      <g id="Group" transform="translate(0 0)">
        <path id="Compound_Path" data-name="Compound Path" d="M46.732,7.543a1.4,1.4,0,0,0-1.961,0l-8.59,8.543a7,7,0,0,0-8.87.84L13.259,30.978l-.607-.654a1.4,1.4,0,0,0-2.007,1.961l.654.654L13.259,34.9l2.054,2.054-2.521,2.521L9.478,36.16a1.4,1.4,0,0,0-1.961,2.007l3.315,3.315,1.961,1.961,3.315,3.315A1.4,1.4,0,0,0,18.068,44.8l-3.315-3.315,2.568-2.521,2.054,2.054,1.961,1.961.654.654a1.4,1.4,0,1,0,1.961-2.007l-.654-.654L37.348,26.963a7,7,0,0,0,.84-8.87L46.732,9.55a1.4,1.4,0,0,0,0-2.007ZM35.341,24.956,21.336,39.008l-2.054-2.054-1.961-1.961-2.054-2.054,2.474-2.474,4.528,4.528,1.961-1.961L19.7,28.5l1.447-1.447,3.5,3.5L26.658,28.6l-3.5-3.5L24.6,23.649l4.528,4.528,1.961-1.961-4.528-4.528,1.447-1.447,3.5,3.5,1.961-1.961-3.408-3.5a4.2,4.2,0,0,1,5.182.607l.14.14a4.2,4.2,0,0,1,0,5.929Z" transform="translate(-7.095 -7.142)" fill="#74b8d0"/>
      </g>
    </g>
    <g id="noun_Plus_923613" transform="translate(5875.085 1420.135)">
      <path id="Path_86" data-name="Path 86" d="M117.485,108.541a2.033,2.033,0,0,1-2.028,2.028h-4.888v4.886a2.033,2.033,0,0,1-2.028,2.028h0a2.033,2.033,0,0,1-2.028-2.028v-4.886h-4.886a2.033,2.033,0,0,1-2.028-2.028h0a2.033,2.033,0,0,1,2.028-2.028h4.886v-4.886a2.033,2.033,0,0,1,2.028-2.028h0a2.033,2.033,0,0,1,2.028,2.028v4.886h4.886a2.034,2.034,0,0,1,2.03,2.028Z" transform="translate(-99.6 -99.6)" fill="#74b8d0" stroke="#fff" stroke-width="1"/>
    </g>
  </g>
</svg>
